<?xml version="1.0" encoding="UTF-8"?><svg id="Layer_1" xmlns="http://www.w3.org/2000/svg" viewBox="0 0 1032 388"><defs><style>.cls-1{letter-spacing:-.04em;}.cls-2{fill:none;}.cls-2,.cls-3,.cls-4{stroke-width:0px;}.cls-5{letter-spacing:.09em;}.cls-6{letter-spacing:.09em;}.cls-7,.cls-8{font-family:KozGoPr6N-Bold-83pv-RKSJ-H, 'Kozuka Gothic Pr6N';font-size:89px;font-weight:700;}.cls-7,.cls-8,.cls-9,.cls-4{fill:#f90;}.cls-7,.cls-8,.cls-10{isolation:isolate;}.cls-8{letter-spacing:.36em;}.cls-11{letter-spacing:-.2em;}.cls-12{letter-spacing:-.16em;}.cls-13{letter-spacing:.05em;}.cls-9{stroke:#f90;stroke-linejoin:round;stroke-width:8px;}.cls-14{letter-spacing:-.1em;}.cls-3{fill:#fff;}</style></defs><path class="cls-3" d="m1002.6,384H29.4c-14,0-25.4-11.4-25.4-25.4V29.4C4,15.4,15.4,4,29.4,4h973.2c14,0,25.4,11.4,25.4,25.4v329.2c0,14-11.4,25.4-25.4,25.4Z"/><rect class="cls-2" x="393.5" y="38.7" width="575" height="310.6"/><g class="cls-10"><text class="cls-7" transform="translate(393.5 118.72)"><tspan class="cls-5" x="0" y="0">水</tspan><tspan class="cls-13" x="96.92" y="0">戸日</tspan><tspan class="cls-6" x="283.64" y="0">赤病</tspan></text><text class="cls-7" transform="translate(879.5 118.72)"><tspan x="0" y="0">院 </tspan></text><text class="cls-8" transform="translate(393.5 225.52)"><tspan x="0" y="0">城東小学</tspan></text><text class="cls-7" transform="translate(879.5 225.52)"><tspan x="0" y="0">校 </tspan></text><text class="cls-7" transform="translate(501.22 332.32)"><tspan class="cls-12" x="0" y="0">す</tspan><tspan class="cls-1" x="74.76" y="0">ぐ</tspan><tspan class="cls-14" x="160.2" y="0">近</tspan><tspan class="cls-11" x="240.3" y="0">く</tspan></text></g><g id="Layer_37"><path class="cls-4" d="m111.8,204.7h-21.5c-3,0-5.4,2.4-5.4,5.4v21.5c0,3,2.4,5.4,5.4,5.4h21.5c3,0,5.4-2.4,5.4-5.4v-21.5c0-3-2.4-5.4-5.4-5.4Zm-5.4,21.5h-10.7v-10.7h10.7s0,10.7,0,10.7Z"/><path class="cls-4" d="m111.8,247.7h-21.5c-3,0-5.4,2.4-5.4,5.4v21.5c0,3,2.4,5.4,5.4,5.4h21.5c3,0,5.4-2.4,5.4-5.4v-21.5c0-3-2.4-5.4-5.4-5.4Zm-5.4,21.5h-10.7v-10.7h10.7s0,10.7,0,10.7Z"/><path class="cls-4" d="m111.8,290.7h-21.5c-3,0-5.4,2.4-5.4,5.4v21.5c0,3,2.4,5.4,5.4,5.4h21.5c3,0,5.4-2.4,5.4-5.4v-21.6c0-2.9-2.4-5.3-5.4-5.3Zm-5.4,21.4h-10.7v-10.7h10.7s0,10.7,0,10.7Z"/><path class="cls-4" d="m111.8,161.8h-21.5c-3,0-5.4,2.4-5.4,5.4v21.5c0,3,2.4,5.4,5.4,5.4h21.5c3,0,5.4-2.4,5.4-5.4v-21.5c0-3-2.4-5.4-5.4-5.4Zm-5.4,21.5h-10.7v-10.7h10.7s0,10.7,0,10.7Z"/><path class="cls-4" d="m348.1,129.6h-59.1V38.3c0-3-2.4-5.4-5.4-5.4h-150.3c-3,0-5.4,2.4-5.4,5.4v91.3h-59c-3,0-5.4,2.4-5.4,5.4v214.8c0,3,2.4,5.4,5.4,5.4h279.3c3,0,5.4-2.4,5.4-5.4v-214.9c-.1-2.9-2.5-5.3-5.5-5.3Zm-220.2,214.8h-53.7v-204.1h53.7s0,204.1,0,204.1Zm107.4,0h-53.7v-43h53.7v43Zm43,0h-32.2v-48.4c0-3-2.4-5.4-5.4-5.4h-64.4c-3,0-5.4,2.4-5.4,5.4v48.3h-32.2V43.6h139.6v300.8Zm64.4,0h-53.7v-204.1h53.7v204.1Z"/><path class="cls-4" d="m154.8,194h21.5c3,0,5.4-2.4,5.4-5.4v-21.5c0-3-2.4-5.4-5.4-5.4h-21.5c-3,0-5.4,2.4-5.4,5.4v21.5c0,3,2.4,5.4,5.4,5.4Zm5.3-21.5h10.7v10.7h-10.7v-10.7Z"/><path class="cls-4" d="m219.2,161.8h-21.5c-3,0-5.4,2.4-5.4,5.4v21.5c0,3,2.4,5.4,5.4,5.4h21.5c3,0,5.4-2.4,5.4-5.4v-21.5c0-3-2.4-5.4-5.4-5.4Zm-5.3,21.5h-10.7v-10.7h10.7v10.7Z"/><path class="cls-4" d="m235.3,167.1v21.5c0,3,2.4,5.4,5.4,5.4h21.5c3,0,5.4-2.4,5.4-5.4v-21.5c0-3-2.4-5.4-5.4-5.4h-21.5c-3,.1-5.4,2.5-5.4,5.4Zm10.8,5.4h10.7v10.7h-10.7v-10.7Z"/><path class="cls-4" d="m154.8,237h21.5c3,0,5.4-2.4,5.4-5.4v-21.5c0-3-2.4-5.4-5.4-5.4h-21.5c-3,0-5.4,2.4-5.4,5.4v21.5c0,3,2.4,5.4,5.4,5.4Zm5.3-21.5h10.7v10.7h-10.7v-10.7Z"/><path class="cls-4" d="m219.2,204.7h-21.5c-3,0-5.4,2.4-5.4,5.4v21.5c0,3,2.4,5.4,5.4,5.4h21.5c3,0,5.4-2.4,5.4-5.4v-21.5c0-3-2.4-5.4-5.4-5.4Zm-5.3,21.5h-10.7v-10.7h10.7v10.7Z"/><path class="cls-4" d="m262.2,204.7h-21.5c-3,0-5.4,2.4-5.4,5.4v21.5c0,3,2.4,5.4,5.4,5.4h21.5c3,0,5.4-2.4,5.4-5.4v-21.5c0-3-2.4-5.4-5.4-5.4Zm-5.4,21.5h-10.7v-10.7h10.7v10.7Z"/><path class="cls-4" d="m176.3,279.9c3,0,5.4-2.4,5.4-5.4v-21.5c0-3-2.4-5.4-5.4-5.4h-21.5c-3,0-5.4,2.4-5.4,5.4v21.5c0,3,2.4,5.4,5.4,5.4h21.5Zm-16.2-21.5h10.7v10.7h-10.7v-10.7Z"/><path class="cls-4" d="m219.2,247.7h-21.5c-3,0-5.4,2.4-5.4,5.4v21.5c0,3,2.4,5.4,5.4,5.4h21.5c3,0,5.4-2.4,5.4-5.4v-21.5c0-3-2.4-5.4-5.4-5.4Zm-5.3,21.5h-10.7v-10.7h10.7v10.7Z"/><path class="cls-4" d="m262.2,247.7h-21.5c-3,0-5.4,2.4-5.4,5.4v21.5c0,3,2.4,5.4,5.4,5.4h21.5c3,0,5.4-2.4,5.4-5.4v-21.5c0-3-2.4-5.4-5.4-5.4Zm-5.4,21.5h-10.7v-10.7h10.7v10.7Z"/><path class="cls-4" d="m176.3,118.8h16.1v16.1c0,3,2.4,5.4,5.4,5.4h21.5c3,0,5.4-2.4,5.4-5.4v-16.1h16.1c3,0,5.4-2.4,5.4-5.4v-21.4c0-3-2.4-5.4-5.4-5.4h-16.1v-16.1c0-3-2.4-5.4-5.4-5.4h-21.5c-3,0-5.4,2.4-5.4,5.4v16.1h-16.1c-3,0-5.4,2.4-5.4,5.4v21.5c0,2.9,2.4,5.3,5.4,5.3Zm5.3-21.5h16.1c3,0,5.4-2.4,5.4-5.4v-16h10.7v16.1c0,3,2.4,5.4,5.4,5.4h16.1v10.7h-16.1c-3,0-5.4,2.4-5.4,5.4v16.1h-10.7v-16.1c0-3-2.4-5.4-5.4-5.4h-16.1v-10.8Z"/><path class="cls-4" d="m305.1,237h21.5c3,0,5.4-2.4,5.4-5.4v-21.5c0-3-2.4-5.4-5.4-5.4h-21.5c-3,0-5.4,2.4-5.4,5.4v21.5c.1,3,2.5,5.4,5.4,5.4Zm5.4-21.5h10.7v10.7h-10.7v-10.7Z"/><path class="cls-4" d="m305.1,279.9h21.5c3,0,5.4-2.4,5.4-5.4v-21.5c0-3-2.4-5.4-5.4-5.4h-21.5c-3,0-5.4,2.4-5.4,5.4v21.5c.1,3,2.5,5.4,5.4,5.4Zm5.4-21.5h10.7v10.7h-10.7v-10.7Z"/><path class="cls-4" d="m305.1,322.9h21.5c3,0,5.4-2.4,5.4-5.4v-21.5c0-3-2.4-5.4-5.4-5.4h-21.5c-3,0-5.4,2.4-5.4,5.4v21.5c.1,3,2.5,5.4,5.4,5.4Zm5.4-21.5h10.7v10.7h-10.7v-10.7Z"/><path class="cls-4" d="m305.1,194h21.5c3,0,5.4-2.4,5.4-5.4v-21.5c0-3-2.4-5.4-5.4-5.4h-21.5c-3,0-5.4,2.4-5.4,5.4v21.5c.1,3,2.5,5.4,5.4,5.4Zm5.4-21.5h10.7v10.7h-10.7v-10.7Z"/></g><path class="cls-9" d="m1004.8,10c9.5,0,17.2,7.7,17.2,17.2v333.6c0,9.5-7.7,17.2-17.2,17.2H27.2c-9.5,0-17.2-7.7-17.2-17.2V27.2c0-9.5,7.7-17.2,17.2-17.2h977.6m0-6H27.2C14.4,4,4,14.4,4,27.2v333.6c0,12.8,10.4,23.2,23.2,23.2h977.6c12.8,0,23.2-10.4,23.2-23.2V27.2c0-12.8-10.4-23.2-23.2-23.2h0Z"/></svg>