<?xml version="1.0" encoding="UTF-8"?><svg id="Layer_1" xmlns="http://www.w3.org/2000/svg" viewBox="0 0 1024 380"><defs><style>.cls-1{isolation:isolate;}.cls-2{fill:#f60;}.cls-2,.cls-3{stroke-width:0px;}.cls-3{fill:#fff;}</style></defs><g id="Layer_2"><rect class="cls-2" width="1024" height="380" rx="25.22" ry="25.22"/></g><path class="cls-3" d="m1000.8,0C1013.6,0,1024,10.4,1024,23.2v333.6c0,12.8-10.4,23.2-23.2,23.2H23.2c-12.8,0-23.2-10.4-23.2-23.2V23.2C0,10.4,10.4,0,23.2,0h977.6Zm0,6H23.2c-9.5,0-17.2,7.7-17.2,17.2v333.6c0,9.5,7.7,17.2,17.2,17.2h977.6c9.5,0,17.2-7.7,17.2-17.2V23.2c0-9.5-7.7-17.2-17.2-17.2"/><path class="cls-3" d="m190.1,68.4c-3.3-18.2,8.8-35.6,27-39,18.2-3.3,35.6,8.8,39,27,3.3,18.2-8.8,35.6-27,39-18.2,3.4-35.7-8.8-39-27Zm.3,136h4.2c45.4-.4,76.7,32.4,76.7,32.4l19.6,7.7c-28.9-44.8-81.1-50.4-96.3-51v-.1h-4.2v.1c-15.2.6-67.3,6.1-96.2,50.9l19.6-7.7c-.1.1,31.2-32.7,76.6-32.3Zm125.2,64.1c-18.9-9.3-36.6-17.7-51.2-24.5-24-24.3-49.3-31.7-71.4-31.7h-1c-22.2,0-47.4,7.5-71.4,31.7-14.5,6.8-32.3,15.2-51.2,24.5-5.9,3-9.8,9.1-9.9,15.8-.1,6.7,3.7,12.9,9.6,16,6,3.1,14.5,7.4,24.1,12,28.7,14,66.2,31.7,66.2,31.7,8.9,4.2,19.5.4,23.7-8.5s.4-19.5-8.5-23.7c0,0-1.1-.5-2.9-1.4-6.5-3.1-23.2-11-40.7-19.4-4.4-2.1-8.9-4.3-13.2-6.4,6.6-3.2,12.8-6.1,18.5-8.7,4.6,1.2,9.8,2.2,15.2,3-1.9-5-3-10.3-3-16,0-24.3,19.7-43.9,43.9-43.9s43.9,19.7,43.9,43.9c0,5.6-1.1,11-3,16,5.4-.7,10.6-1.7,15.2-3,5.7,2.7,11.9,5.6,18.5,8.7-11.8,5.7-24.3,11.7-34.5,16.6-6.4,3.1-12,5.8-16,7.6s-6.3,3-6.3,3c-8.9,4.2-12.7,14.8-8.5,23.7s14.8,12.7,23.7,8.5c0,0,16.7-7.9,36.3-17.3,9.8-4.7,20.4-9.8,29.9-14.4,9.6-4.6,18.1-8.9,24.1-12,5.9-3.1,9.7-9.3,9.6-16,.2-6.7-3.6-12.8-9.7-15.8Zm-87.8-5.6c0-19.5-15.8-35.3-35.3-35.3s-35.3,15.8-35.3,35.3,15.8,35.3,35.3,35.3c19.6,0,35.3-15.8,35.3-35.3Zm88.7-142.9c-10.3-16.3-36-37.8-52-30.9-7.7,3.2-14,12.3-16.8,23.1-3.6,5.1-7.7,11-11.6,16.6-3.2,4.6-6.4,9-9,12.7-1.9,2.7-3.5,4.9-4.8,6.7-.3.1-.7.2-1.2.4-2.3.7-5.8,1.4-9.6,2-5.7.9-12,1.5-16.8,1.9-2.4.2-4.5.3-5.9.4-.7.1-1.2.1-1.6.1h-.5c-8.7.4-15.5,7.8-15.1,16.5s7.8,15.5,16.5,15.1c.2,0,10.6-.4,22.3-1.9,5.8-.7,11.9-1.7,17.6-3.2,2.9-.7,5.7-1.7,8.6-3,1.5-.7,3-1.5,4.6-2.6s3.3-2.5,5-4.8h0c2.2-2.9,5.6-7.6,9.5-13.2,1.1-1.5,2.2-3.1,3.3-4.7,5,6.3,11.3,15,17.5,25.4,3.8,6.4,1.8,16-.9,30.5,9.1,9.1,27.1,25,34.2,43.2,15.5,6.9,23.1,12.8,23.9,10.9,20.3-50.8-1.4-116.1-17.2-141.2Z"/><g class="cls-1"><g class="cls-1"><path class="cls-3" d="m433.17,94.98c-.44.44-1.42.62-2.4.44-1.6,2.05-4.45,5.16-6.85,7.57,2.67,2.49,5.07,4.81,6.05,5.88l-6.32,8.1c-1.78-2.58-4.72-6.32-7.65-9.79v32.31h-10.5v-29.37c-2.85,3.03-5.79,5.79-8.63,8.01-.98-2.67-3.83-7.83-5.52-9.79,8.81-6.05,17.53-16.55,23.05-27.32h-20.56v-9.61h11.66v-15.84l12.91.71c-.09.89-.8,1.42-2.4,1.69v13.44h4.01l1.69-.44,7.12,4.18c-.36.53-.89,1.07-1.6,1.25-2.67,6.68-6.41,13.44-10.68,19.85.71.53,1.51,1.25,2.4,2.05,2.23-3.03,4.98-6.94,6.5-9.88l7.74,6.59Zm35.69-32.67l5.96.36c0,.8-.09,2.4-.18,3.74-.89,46.37-1.69,62.04-5.16,66.84-3.65,5.7-7.48,6.14-21,5.87-.18-3.12-1.51-7.92-3.38-11.04,4.72.36,8.9.36,11.04.36,1.51,0,2.4-.36,3.38-1.78,2.49-2.94,3.47-17.45,4.18-54.2h-13.17c-.71,24.39-2.49,51.44-23.14,67.11-1.78-2.85-5.07-6.32-7.92-8.37,18.51-13,19.85-35.78,20.29-58.74h-12.99v-10.06h39.61l2.49-.09Z"/><path class="cls-3" d="m495.91,60.44h75.56v78.15h-11.3v-5.79h-53.4v5.79h-10.86V60.44Zm10.86,61.86h53.4v-51.36h-53.4v51.36Zm9.35-41.03h34.36v30.62h-34.36v-30.62Zm24.39,21.9v-13.26h-14.95v13.26h14.95Z"/><path class="cls-3" d="m674.45,91.86h-53.05v-8.99h-6.14v16.55l9.35-1.78.18,2.31h27.06v-7.48l12.91.53c-.09.89-.71,1.42-2.31,1.69v5.25h10.86v9.79h-10.86v18.42c0,9.97-3.83,11.3-19.31,11.3-.36-2.94-1.78-7.3-3.12-10.15,4.09.18,8.72.18,10.06.18,1.34-.09,1.78-.36,1.78-1.51v-18.25h-28.66v-2.31l-7.92,2.05v29.99h-10.23v-27.5c-3.65.89-7.03,1.69-9.79,2.31-.18.89-.89,1.42-1.6,1.51l-3.47-11.93c4-.62,9.17-1.51,14.86-2.58v-18.42h-5.25c-1.07,4.81-2.31,9.26-3.83,12.82-1.42-1.6-4.54-4.27-6.41-5.61,2.49-6.94,3.92-18.96,4.72-29.99l10.59,2.49c-.27.62-.89,1.16-2.14,1.07-.27,2.94-.71,6.05-1.16,9.08h3.47v-17.18l12.55.71c-.09.8-.71,1.34-2.31,1.6v14.86h9.26v9.26h17.8v-7.92h-15.93v-9.7h15.93v-8.9l12.99.71c-.09.89-.8,1.42-2.4,1.78v6.41h16.56v9.7h-16.56v7.92h21.54v9.88Zm-39.07,37.92c-1.42-3.83-5.25-9.79-8.54-14.06l8.28-4.27c3.38,4.09,7.39,9.7,8.99,13.53l-8.72,4.81Z"/><path class="cls-3" d="m724.02,99.07l2.14-.09,5.52.45-.27,2.94c-.8,21.81-1.78,30.26-4.18,33.29-2.58,3.2-5.34,3.74-13.08,3.74-1.42,0-2.94,0-4.45-.09-.27-2.85-1.34-6.76-2.85-9.26,3.92.36,5.52.36,9.43.36,1.07,0,1.69-.18,2.4-.98,1.34-1.51,2.14-7.21,2.76-21.09h-10.15c-2.14,11.12-6.14,22.7-15.04,30.97-1.51-2.49-4.63-5.79-7.21-7.57,11.48-10.06,13.35-27.06,14.24-40.85h-9.08v-31.24h36.94v31.24h-17.53c-.27,2.58-.53,5.34-.89,8.19h11.3Zm-20.11-29.91v12.28h16.91v-12.28h-16.91Zm46.73-2.05c-.09.89-.8,1.42-2.31,1.69v48.15h-10.41v-50.55l12.73.71Zm8.37-9.79l12.99.62c-.09.89-.62,1.51-2.4,1.69v66.84c0,10.95-3.47,13.08-22.79,13.08-.44-3.12-2.14-8.01-3.74-11.04,5.87.18,11.66.18,13.53.18,1.69,0,2.4-.53,2.4-2.23V57.33Z"/><path class="cls-3" d="m840.34,125.33c0,3.65.62,4.18,5.16,4.18h13.88c3.47,0,4.18-1.25,4.63-7.92,2.05,1.42,5.88,2.94,8.63,3.47-1.16,10.32-4,13.35-12.46,13.35h-15.67c-10.86,0-13.62-2.85-13.62-12.99v-14.15l-3.74,1.78-3.65-8.81,7.39-3.38v-10.59l-1.42,1.6c-1.6-1.96-5.07-5.52-7.3-7.21,1.51-1.6,2.94-3.47,4.27-5.61h-18.78l-.27,9.61h11.13l5.25.18c0,.89,0,2.05-.09,3.2-.45,29.46-.89,40.05-3.21,43.26-2.76,4.18-6.32,4.18-15.04,4.18-.18-2.94-1.16-6.94-2.58-9.52,2.76.36,5.25.36,6.5.36,1.16,0,1.87-.27,2.58-1.42,1.16-1.78,1.69-9.43,2.05-30.53h-7.12c-1.07,15.67-3.92,30.53-11.48,41.03-1.69-2.49-4.9-5.7-7.57-7.39,8.9-12.28,9.61-32.22,9.88-52.96h-8.63v-9.88h13.8v-13.53l12.55.71c-.09.8-.71,1.33-2.31,1.6v11.21h14.06v8.72c3.65-6.23,6.41-14.33,8.01-22.43l12.1,2.94c-.27.8-1.07,1.16-2.31,1.16-.71,2.76-1.51,5.52-2.4,8.19h29.64v9.7h-33.47c-1.42,3.12-3.12,6.14-4.89,8.81l8.72.45c-.09.89-.71,1.33-2.23,1.6v8.19l4.98-2.31v-15.31l11.48.62c-.09.8-.71,1.33-2.22,1.6v8.81l4.45-2.05h-.09l3.56-2.49c2.31.8,4.63,1.51,7.39,2.49-.09.45-.53.98-1.16,1.25-.09,12.64-.09,21.63-.36,24.39-.36,7.03-6.32,7.12-11.3,7.12-.18-2.4-.89-5.79-1.87-7.74.98.09,2.31.09,2.94.09.8,0,1.16-.27,1.33-1.33.09-.8.18-5.52.18-13.71l-5.07,2.4v23.5h-9.26v-19.22l-4.98,2.31v18.42Z"/></g><g class="cls-1"><path class="cls-3" d="m917.48,59.91c-.36.62-1.16.98-2.31.8-4.27,6.05-11.66,14.69-17.89,20.38-1.42-2.14-4.18-5.7-5.96-7.65,5.43-4.72,11.93-12.37,15.13-17.98l11.04,4.45Zm32.75,25.1h-11.57v53.05h-9.97v-53.05h-11.93v-4.81h-.53c-1.6,3.65-3.38,7.39-5.43,11.13l2.31.71c-.18.71-.89,1.33-2.23,1.51v45.93h-9.79v-32.13c-1.6,2.23-3.12,4.27-4.72,6.14-.98-2.31-3.56-7.21-5.07-9.35,5.79-6.67,12.37-18.25,16.38-28.93l9.08,3.29v-3.03h11.93v-18.6l12.19.71c-.09.8-.71,1.33-2.23,1.6v16.29h11.57v9.52Zm-22.61,11.21c-.18.71-.8,1.16-1.87,1.16-.98,11.21-2.76,23.5-6.32,31.06-1.51-1.42-4.54-3.56-6.41-4.72,2.76-6.59,4.01-18.42,4.63-29.55l9.97,2.05Zm18.78-37.83c2.31,3.56,4.89,8.37,5.96,11.57l-7.48,3.38c-.98-3.2-3.38-8.28-5.61-12.02l7.12-2.94Zm-2.49,64.26c-.27-7.3-1.87-18.25-3.47-26.7,6.94-1.42,7.12-1.42,7.3-1.51,1.87,8.63,3.47,19.4,4,26.7l-7.83,1.51Zm31.51-37.03v9.52h-6.94v32.75c0,9.34-3.03,11.48-17.27,11.48-.27-2.94-1.51-7.3-2.94-10.41,3.65.18,7.39.18,8.54.18s1.51-.27,1.51-1.42v-32.58h-7.83v-9.52h24.92Zm-1.25-25.28v9.35h-21.09v-9.35h21.09Z"/></g><g class="cls-1"><path class="cls-3" d="m401.37,170.47c5.64-4.25,16.79-8.17,28.98-8.17,18.86,0,29.44,9.89,29.44,21.97,0,9.66-5.41,17.37-17.37,21.05v.23c11.16,1.38,20.47,9.08,20.47,21.05,0,14.72-13.34,26.11-36.11,26.11-12.19,0-22.2-3.45-28.06-7.82l4.72-13.92c3.8,2.76,12.77,7.13,22.31,7.13,11.73,0,17.71-5.87,17.71-12.42,0-9.32-9.78-12.88-19.55-12.88h-9.66v-13.34h9.55c7.94,0,17.02-3.57,17.02-11.96,0-5.87-4.83-10.58-14.26-10.58-8.28,0-16.79,4.14-20.47,7.02l-4.72-13.46Z"/><path class="cls-3" d="m492.57,262.02c2.88-8.74,5.52-20.36,6.9-29.44l18.63-1.38c-3.45,10.24-8.4,22.08-13.23,29.67l-12.31,1.15Z"/><path class="cls-3" d="m618.38,214.52c-4.49,4.37-11.04,7.36-20.01,7.36-15.29,0-28.64-10.12-28.64-28.64s14.15-30.94,33.01-30.94c24.5,0,35.54,18.4,35.54,38.3,0,28.41-18.29,51.98-53.48,51.98-1.38,0-2.76-.12-3.91-.23l-1.61-13.8c1.38.11,2.99.23,4.72.23,17.02,0,31.74-9.08,34.62-24.27h-.23Zm-29.56-22.66c0,9.66,5.52,16.79,15.64,16.79,8.28,0,15.76-6.55,15.76-13.34,0-2.42-1.15-19.32-17.37-19.32-7.82,0-14.03,6.1-14.03,15.87Z"/><path class="cls-3" d="m701.64,206.24c-9.32-4.25-13.69-11.38-13.69-19.09,0-14.72,13.46-24.84,31.51-24.84,22.2,0,30.02,12.77,30.02,22.54,0,7.94-4.37,15.41-13.46,19.55v.23c9.43,3.1,17.14,10.24,17.14,21.51,0,15.76-13.8,26.57-34.62,26.57-23,0-33.7-12.65-33.7-24.27,0-10.46,5.98-17.71,16.79-21.85v-.35Zm32.2,21.62c0-8.4-6.32-13.11-16.56-15.18-8.62,1.61-13.46,6.9-13.46,13.69s5.75,13.34,15.18,13.34c8.86,0,14.83-5.29,14.83-11.85Zm-28.06-41.52c0,6.56,5.98,10.7,14.84,12.77,5.98-1.38,11.5-5.87,11.5-12.19,0-5.52-3.79-11.85-13-11.85s-13.34,5.52-13.34,11.27Z"/><path class="cls-3" d="m799.85,207.28c0-26.11,12.08-44.97,34.27-44.97s34.04,18.63,34.04,44.85-11.04,45.54-34.27,45.54c-24.5,0-34.04-21.51-34.04-45.43Zm49.68.12c0-20.24-5.41-31.4-15.53-31.4-9.43,0-15.53,11.16-15.53,31.4,0,21.74,6.44,31.63,15.64,31.63,9.89,0,15.41-11.39,15.41-31.63Z"/></g><g class="cls-1"><path class="cls-3" d="m970.88,174.36v65.77c0,11.21-5.43,12.46-21.98,12.46-.53-2.94-2.31-7.92-3.92-10.68,3.47.27,7.21.27,9.88.27,4.72,0,5.25,0,5.25-2.22v-21.72h-54.29v34.36h-10.77v-78.24h75.83Zm-65.06,10.59v22.7h21.18v-22.7h-21.18Zm31.86,22.7h22.43v-22.7h-22.43v22.7Z"/></g><g class="cls-1"><path class="cls-3" d="m557.1,329.49c-3.84-5.34-8.1-14.4-8.04-27.72.06-13.32,4.2-22.44,8.04-27.78h6.36c-4.08,6.36-7.32,15.42-7.32,27.84s3.24,21.18,7.32,27.66h-6.36Z"/><path class="cls-3" d="m594.36,296.91c-.3.3-.96.42-1.62.3-1.08,1.38-3,3.48-4.62,5.1,1.8,1.68,3.42,3.24,4.08,3.96l-4.26,5.46c-1.2-1.74-3.18-4.26-5.16-6.6v21.78h-7.08v-19.8c-1.92,2.04-3.9,3.9-5.82,5.4-.66-1.8-2.58-5.28-3.72-6.6,5.94-4.08,11.82-11.16,15.54-18.42h-13.86v-6.48h7.86v-10.68l8.7.48c-.06.6-.54.96-1.62,1.14v9.06h2.7l1.14-.3,4.8,2.82c-.24.36-.6.72-1.08.84-1.8,4.5-4.32,9.06-7.2,13.38.48.36,1.02.84,1.62,1.38,1.5-2.04,3.36-4.68,4.38-6.66l5.22,4.44Zm24.06-22.02l4.02.24c0,.54-.06,1.62-.12,2.52-.6,31.26-1.14,41.82-3.48,45.06-2.46,3.84-5.04,4.14-14.16,3.96-.12-2.1-1.02-5.34-2.28-7.44,3.18.24,6,.24,7.44.24,1.02,0,1.62-.24,2.28-1.2,1.68-1.98,2.34-11.76,2.82-36.54h-8.88c-.48,16.44-1.68,34.68-15.6,45.24-1.2-1.92-3.42-4.26-5.34-5.64,12.48-8.76,13.38-24.12,13.68-39.6h-8.76v-6.78h26.7l1.68-.06Z"/><path class="cls-3" d="m649.74,280.29v5.7h-22.8v-5.7h22.8Zm-1.68,25.08v18.36h-12.36v2.34h-6.06v-20.7h18.42Zm-.84-16.62l-.24-.3c6.36-3.96,12.42-11.94,15.12-18.12l8.28.36c-.18.48-.54.84-1.14.96,3.36,5.88,9.6,12.6,15.3,15.72-1.38,1.8-2.88,4.5-3.96,6.66-5.82-3.84-11.82-10.8-15-16.56-2.94,5.64-8.58,12.78-15.06,17.04-.66-1.38-1.62-3.24-2.58-4.74v4.44h-18.12v-5.46h17.4Zm-17.4,13.68v-5.4h18.12v5.4h-18.12Zm18-30.24v5.46h-17.82v-5.46h17.82Zm-5.88,38.88h-6.24v6.96h6.24v-6.96Zm41.4-3.42c-.24.42-.78.66-1.62.66-5.88,8.52-15.96,14.88-27.6,18.78-.9-1.92-2.76-4.5-4.5-6.18,10.8-2.88,20.88-8.46,26.1-16.26l7.62,3Zm-10.74-18.24c-.18.42-.66.66-1.38.66-3.3,4.14-8.94,8.64-14.22,11.58-1.14-1.38-3-3.24-4.62-4.38,4.68-2.34,10.08-6.6,12.9-10.5l7.32,2.64Zm5.82,8.7c-.18.42-.72.66-1.5.66-4.44,5.52-12.12,10.8-19.68,14.22-1.02-1.5-2.82-3.6-4.44-4.98,6.78-2.64,14.34-7.56,18.18-12.72l7.44,2.82Z"/><path class="cls-3" d="m704.1,298.77c2.04,1.62,7.92,7.14,9.24,8.46l-4.08,5.82c-1.14-1.74-3.18-4.38-5.16-6.78v20.58h-6.9v-18.9c-2.16,4.68-4.68,9.06-7.32,12.06-.66-2.16-2.28-5.34-3.42-7.32,3.48-3.6,7.08-9.66,9.3-15.12h-8.04v-6.72h9.48v-20.58l8.46.48c-.06.6-.48.9-1.56,1.08v19.02h8.7v6.72h-8.7v1.2Zm-11.1-24.66c1.74,4.26,3.06,9.66,3.48,13.32l-5.88,1.62c-.24-3.6-1.56-9.24-3.12-13.5l5.52-1.44Zm22.62,1.98c-.18.42-.72.72-1.56.72-1.14,3.78-3.24,9.12-4.98,12.48-1.56-.54-3.42-1.26-4.98-1.8,1.5-3.66,3.24-9.42,4.02-13.56l7.5,2.16Zm28.14,34.2l-7.56,1.44v15.18h-7.08v-13.86l-15.06,2.88-1.2-6.84,16.26-3v-35.52l8.64.48c-.06.54-.48.96-1.56,1.14v32.58l6.42-1.2,1.14,6.72Zm-24.9-20.34c3.24,2.64,7.26,6.48,9.06,9.24-5.22,3.96-5.34,4.08-5.4,4.14-1.68-2.7-5.46-6.78-8.7-9.66l5.04-3.72Zm1.8-15.18c2.94,2.58,6.36,6.24,7.86,8.88l-5.52,3.9c-1.38-2.64-4.68-6.54-7.5-9.24l5.16-3.54Z"/><path class="cls-3" d="m761.82,293.79v19.08c3.72,6.06,10.98,6.06,21.48,6.06,6.9,0,15.06-.18,20.64-.66-.78,1.74-1.92,5.22-2.28,7.32-4.44.24-10.68.36-16.56.36-13.44,0-20.64,0-26.46-6.9-2.64,2.34-5.34,4.68-7.62,6.48,0,.66-.24,1.02-.84,1.2l-3.66-7.92c2.58-1.56,5.64-3.54,8.28-5.64v-12.72h-7.02v-6.66h14.04Zm-8.64-22.08c3.66,2.52,8.1,6.24,10.14,9.12l-5.7,4.8c-1.86-2.88-6.18-6.9-9.78-9.6l5.34-4.32Zm16.32,1.14h16.62c.96,17.16,4.62,31.74,17.22,38.04-1.74,1.2-4.32,3.78-5.64,5.52-7.5-4.44-11.94-11.46-14.58-20.04-3,8.58-7.68,15.54-14.52,20.04-1.02-1.44-3.48-4.02-5.04-5.22,8.1-4.86,12.9-14.22,14.82-25.8l2.4.42c-.3-1.98-.54-4.08-.72-6.18h-10.56v-6.78Z"/><path class="cls-3" d="m813.42,273.99c3.84,5.22,8.1,14.28,8.04,27.72-.06,13.38-4.2,22.32-8.04,27.78h-6.36c4.08-6.36,7.32-15.54,7.32-27.84s-3.24-21.24-7.32-27.66h6.36Z"/></g></g></svg>