<?xml version="1.0" encoding="UTF-8"?><svg id="Layer_1" xmlns="http://www.w3.org/2000/svg" xmlns:xlink="http://www.w3.org/1999/xlink" viewBox="0 0 512 512"><defs><style>.cls-1{clip-path:url(#clippath);}.cls-2,.cls-3,.cls-4{fill:none;}.cls-2,.cls-3,.cls-5,.cls-6,.cls-7{stroke-width:0px;}.cls-8,.cls-7{fill:#66a487;}.cls-9{clip-path:url(#clippath-2);}.cls-3{clip-path:url(#clippath-1);}.cls-4{stroke:#fff;stroke-width:21.82px;}.cls-5{fill:#fff;}.cls-6{fill:#006837;}</style><clipPath id="clippath"><circle class="cls-2" cx="-276" cy="256" r="173.73"/></clipPath><clipPath id="clippath-1"><circle class="cls-7" cx="256" cy="256" r="256"/></clipPath><clipPath id="clippath-2"><circle class="cls-3" cx="256" cy="256" r="256"/></clipPath></defs><g class="cls-1"><rect class="cls-2" x="-584.44" y="-30.72" width="624.06" height="662.43"/></g><circle class="cls-8" cx="256" cy="256" r="256"/><g class="cls-9"><path class="cls-5" d="m382.4,281.14c-1.27-22.14.55-23.32,6.28-45.89,3.65-13.05,6.84-26.47,13.49-38.77,2.27-3.91,5.01-8.4,9.2-9.74,6.3.1,7.48,8.09,8.29,13.66,2.01,25.24-15.24,52.34-6.93,77.53,1.87,6.65,9.38,8.79,14.89,3.19,8.72-8.28,37.08-48.28,12.68-96.47-14.56-30.3-31.6-58.73-46.69-88.62-2.35-5.11-5.29-10.06-5.83-16.19-.34-4.3,1.44-10.32,6.03-12.04,6.11-1.87,10.84,2.59,14.08,6.82,16.03,26.11,58.98,73.32,72.21,109.65,36.63,82.64,16.59,217.93-126.19,296.03,106.31-110.09,33.57-151.34,28.52-199.16Z"/><path class="cls-5" d="m385.67,134.12c-10.26-7.21-18.44-16.07-22.16-31.36-.56-2.11-.31-6.16,1.72-6.37,8.37.44,15.01,5.32,21.75,9.33,5.75,3.98,12.34,7.28,15.75,14.04,7.75,11.35,14.05,23.88,20.86,36-13.5-5.67-25.97-13.33-37.91-21.65Z"/><path class="cls-5" d="m404.03,168.2c-10.59-3.24-20.27-9.71-25.24-20.37-.94-1.85-1.78-5.79.6-5.93,15.9,3.32,29.53,11.77,43.49,19.11,3.93,1.8,6.81,5.71,7.67,10.25-9.13,2.02-18.49-.64-26.52-3.06Z"/><path class="cls-5" d="m129.6,281.14c1.27-22.14-.55-23.32-6.28-45.89-3.65-13.05-6.84-26.47-13.49-38.77-2.27-3.91-5.01-8.4-9.2-9.74-6.3.1-7.48,8.09-8.29,13.66-2.01,25.24,15.24,52.34,6.93,77.53-1.87,6.65-9.38,8.79-14.89,3.19-8.72-8.28-37.08-48.28-12.68-96.47,14.56-30.3,31.6-58.73,46.69-88.62,2.35-5.11,5.29-10.06,5.83-16.19.34-4.3-1.44-10.32-6.03-12.04-6.11-1.87-10.84,2.59-14.08,6.82-16.03,26.11-58.98,73.32-72.21,109.65-36.63,82.64-16.59,217.93,126.19,296.03-106.31-110.09-33.57-151.34-28.52-199.16Z"/><path class="cls-5" d="m126.33,134.12c10.26-7.21,18.44-16.07,22.16-31.36.56-2.11.31-6.16-1.72-6.37-8.37.44-15.01,5.32-21.75,9.33-5.75,3.98-12.34,7.28-15.75,14.04-7.75,11.35-14.05,23.88-20.86,36,13.5-5.67,25.97-13.33,37.91-21.65Z"/><path class="cls-5" d="m107.97,168.2c10.59-3.24,20.28-9.71,25.24-20.37.94-1.85,1.78-5.79-.6-5.93-15.89,3.32-29.53,11.77-43.49,19.11-3.93,1.8-6.81,5.71-7.67,10.25,9.13,2.02,18.49-.64,26.52-3.06Z"/></g><path class="cls-4" d="m281.06,328.41c0,53.03-32.99,66.98-72.65,66.98-41.88,0-78.68-22.64-78.68-58.3,0-39.69,34.9-56.75,82.17-56.75h2.54c10.79.31,22.52,1.55,34.58,4.03-.32-13.33-.63-27.91-.95-42.79h-26.65c-26.96,0-53.93-.31-79.95-.93-8.88,0-13.32-7.44-13.32-15.2s4.44-14.89,13.32-14.89h.95c28.23,1.24,58.06,1.86,87.24,1.86h17.77c-.32-11.47-.32-22.64-.63-33.49h-21.89c-22.21,0-45.05-.31-69.48-.93-8.57,0-13.01-7.13-13.01-14.27s4.44-14.26,13.01-14.26h.95c26.65.62,51.08,1.24,74.55,1.24h15.23c-.32-7.44-.63-14.57-.63-20.78v-.62c0-8.68,7.61-12.71,15.54-12.71s16.5,4.65,16.81,13.95c0,5.58.32,12.41.32,19.54,24.43-.93,48.54-2.17,73.92-4.65h1.9c8.57,0,13.33,7.44,13.33,14.58,0,6.51-3.81,13.02-12.06,13.64-9.52.93-46.63,3.72-76.77,4.65.32,10.54.32,22.02.63,33.49,32.36-1.24,63.13-3.1,90.1-5.89h1.59c8.25,0,13.01,7.75,13.01,15.2,0,6.82-3.81,13.64-12.05,14.57-27.92,2.79-59.32,4.34-92,5.27.32,18.3.63,36.28.95,51.48,33.31,10.54,66.62,26.98,92,45.59,4.76,3.72,6.66,8.37,6.66,13.33,0,9.3-7.3,18.3-16.81,18.3-3.49,0-7.61-1.24-11.42-4.34-20.62-16.44-45.68-30.39-70.11-40.62v3.72Zm-31.72-14.27c-12.69-3.1-24.43-4.96-34.26-5.27h-4.76c-31.41,0-47.27,8.68-47.27,28.84,0,17.06,21.26,26.67,45.37,26.67,22.52,0,40.92-6.51,40.92-35.66v-14.58Z"/><path class="cls-6" d="m281.06,328.41c0,53.03-32.99,66.98-72.65,66.98-41.88,0-78.68-22.64-78.68-58.3,0-39.69,34.9-56.75,82.17-56.75h2.54c10.79.31,22.52,1.55,34.58,4.03-.32-13.33-.63-27.91-.95-42.79h-26.65c-26.96,0-53.93-.31-79.95-.93-8.88,0-13.32-7.44-13.32-15.2s4.44-14.89,13.32-14.89h.95c28.23,1.24,58.06,1.86,87.24,1.86h17.77c-.32-11.47-.32-22.64-.63-33.49h-21.89c-22.21,0-45.05-.31-69.48-.93-8.57,0-13.01-7.13-13.01-14.27s4.44-14.26,13.01-14.26h.95c26.65.62,51.08,1.24,74.55,1.24h15.23c-.32-7.44-.63-14.57-.63-20.78v-.62c0-8.68,7.61-12.71,15.54-12.71s16.5,4.65,16.81,13.95c0,5.58.32,12.41.32,19.54,24.43-.93,48.54-2.17,73.92-4.65h1.9c8.57,0,13.33,7.44,13.33,14.58,0,6.51-3.81,13.02-12.06,13.64-9.52.93-46.63,3.72-76.77,4.65.32,10.54.32,22.02.63,33.49,32.36-1.24,63.13-3.1,90.1-5.89h1.59c8.25,0,13.01,7.75,13.01,15.2,0,6.82-3.81,13.64-12.05,14.57-27.92,2.79-59.32,4.34-92,5.27.32,18.3.63,36.28.95,51.48,33.31,10.54,66.62,26.98,92,45.59,4.76,3.72,6.66,8.37,6.66,13.33,0,9.3-7.3,18.3-16.81,18.3-3.49,0-7.61-1.24-11.42-4.34-20.62-16.44-45.68-30.39-70.11-40.62v3.72Zm-31.72-14.27c-12.69-3.1-24.43-4.96-34.26-5.27h-4.76c-31.41,0-47.27,8.68-47.27,28.84,0,17.06,21.26,26.67,45.37,26.67,22.52,0,40.92-6.51,40.92-35.66v-14.58Z"/></svg>