<?xml version="1.0" encoding="UTF-8"?><svg id="Layer_1" xmlns="http://www.w3.org/2000/svg" viewBox="0 0 1024 380"><defs><style>.cls-1{fill:none;}.cls-1,.cls-2,.cls-3{stroke-width:0px;}.cls-4{font-family:KozGoPr6N-Bold-83pv-RKSJ-H, 'Kozuka Gothic Pr6N';font-size:89px;font-weight:700;isolation:isolate;}.cls-4,.cls-3{fill:#f90;}.cls-2{fill:#fff;}</style></defs><path class="cls-2" d="m23.2,377c-11.1,0-20.2-9.1-20.2-20.2V23.2C3,12.1,12.1,3,23.2,3h977.6c11.1,0,20.2,9.1,20.2,20.2v333.6c0,11.1-9.1,20.2-20.2,20.2H23.2Z"/><path class="cls-3" d="m1000.8,6c9.5,0,17.2,7.7,17.2,17.2v333.6c0,9.5-7.7,17.2-17.2,17.2H23.2c-9.5,0-17.2-7.7-17.2-17.2V23.2c0-9.5,7.7-17.2,17.2-17.2h977.6m0-6H23.2C10.4,0,0,10.4,0,23.2v333.6c0,12.8,10.4,23.2,23.2,23.2h977.6c12.8,0,23.2-10.4,23.2-23.2V23.2c0-12.8-10.4-23.2-23.2-23.2h0Z"/><rect class="cls-1" x="389.5" y="135.8" width="575" height="108.5"/><text class="cls-4" transform="translate(454.52 214.07)"><tspan x="0" y="0">完全予約制</tspan></text><path class="cls-3" d="m351.5,44v43.6H59.5v-43.6h14.1v12.1c0,2.8,2.3,5,5,5h29.8c2.8,0,5-2.3,5-5v-12.1h16.1v12.1c0,2.8,2.3,5,5,5h29.9c2.8,0,5-2.3,5-5v-12.1h16.1v12.1c0,2.8,2.3,5,5,5h29.8c2.8,0,5-2.3,5-5v-12.1h16.1v12.1c0,2.8,2.3,5,5,5h29.9c2.8,0,5-2.3,5-5v-12.1h16v12.1c0,2.8,2.3,5,5,5h29.8c2.8,0,5-2.3,5-5v-12.1h14.4Z"/><path class="cls-3" d="m314.2,136.7l-20.1,26.2c-.9,1.2-2.4,2-4,2h-.4c-1.7-.1-3.2-1.1-4-2.6l-10.1-18.1c-1.4-2.4-.5-5.5,2-6.8,2.4-1.3,5.5-.5,6.8,2l6.3,11.4,15.5-20.1c1.7-2.2,4.9-2.6,7-.9,2.3,1.5,2.7,4.7,1,6.9h0Zm-19.1,93.6c-9.4,0-17.1-7.7-17.1-17.1s7.7-17.1,17.1-17.1,17.1,7.7,17.1,17.1c.1,9.4-7.6,17.1-17.1,17.1h0Zm-43.3-93.6l-20.1,26.2c-.9,1.2-2.4,2-4,2h-.4c-1.7-.1-3.2-1.1-4-2.6l-10.1-18.1c-1.3-2.4-.5-5.5,2-6.8,2.4-1.3,5.5-.5,6.8,2l6.3,11.4,15.5-20.1c1.7-2.2,4.9-2.6,7-.9,2.3,1.5,2.7,4.7,1,6.9h0Zm-19.1,93.6c-9.4,0-17.1-7.7-17.1-17.1s7.7-17.1,17.1-17.1,17.1,7.7,17.1,17.1-7.7,17.1-17.1,17.1h0Zm0,66.4c-9.4,0-17.1-7.7-17.1-17.1s7.7-17.1,17.1-17.1,17.1,7.7,17.1,17.1-7.7,17.1-17.1,17.1h0Zm-43.3-93.6l-20.1,26.2c-.9,1.2-2.4,2-4,2h-.4c-1.7-.1-3.2-1.1-4-2.6l-10.1-18.1c-1.3-2.4-.5-5.5,2-6.8,2.4-1.3,5.5-.5,6.8,2l6.3,11.4,15.5-20.1c1.7-2.2,4.9-2.6,7-.9,2.2,1.6,2.6,4.7,1,6.9h0Zm-19.1,93.6c-9.4,0-17.1-7.7-17.1-17.1s7.7-17.1,17.1-17.1,17.1,7.7,17.1,17.1c0,9.5-7.7,17.1-17.1,17.1h0Zm-62.5-132.9c-9.4,0-17.1-7.7-17.1-17.1s7.7-17.1,17.1-17.1,17.1,7.7,17.1,17.1-7.6,17.1-17.1,17.1h0Zm0,66.5c-9.4,0-17.1-7.7-17.1-17.1s7.7-17.1,17.1-17.1,17.1,7.7,17.1,17.1-7.6,17.1-17.1,17.1h0Zm0,66.4c-9.4,0-17.1-7.7-17.1-17.1s7.7-17.1,17.1-17.1,17.1,7.7,17.1,17.1-7.6,17.1-17.1,17.1h0Zm62.5-167.1c9.4,0,17.1,7.7,17.1,17.1s-7.7,17.1-17.1,17.1-17.1-7.7-17.1-17.1c-.1-9.4,7.6-17.1,17.1-17.1h0Zm-110.8-31.9v238.3h292V97.7H59.5Z"/></svg>